<?xml version="1.0" encoding="UTF-8"?><svg id="a" xmlns="http://www.w3.org/2000/svg" viewBox="0 0 3044.18 2110.76"><defs><style>.b{fill:#55c4f1;}</style></defs><g><polygon class="b" points="960.2 0 960.2 127.83 1026.82 127.83 1026.82 66.62 2164.11 66.62 2164.11 1203.91 2085.34 1203.91 2085.34 1203.91 1852.18 1203.91 960.2 1203.91 960.2 1270.53 1852.18 1270.53 1953.01 1270.53 2085.34 1270.53 2085.34 1270.53 2102.89 1270.53 2230.73 1270.53 2230.73 0 960.2 0"/><polygon class="b" points="1994.64 1373.37 857.35 1373.37 857.35 236.08 1019.38 236.08 1086 236.08 1994.64 236.08 1994.64 356.84 2061.26 356.84 2061.26 169.46 1086 169.46 1019.38 169.46 790.73 169.46 790.73 1439.99 2061.26 1439.99 2061.26 1312.16 1994.64 1312.16 1994.64 1373.37"/></g><path class="b" d="M1494.13,750.13c0,123.97-78.73,214.36-210.86,214.36-122.55,0-210.18-73.28-210.18-208.88h89c0,82.19,39.71,123.97,121.18,123.97s120.49-56.85,120.49-129.45v-190.4h-144.45v-84.24h234.82v274.64Z"/><path class="b" d="M1673.83,475.49v403.77h251.64v85.23h-343.91V475.49h92.27Z"/></svg>